<?xml version="1.0" standalone="no"?><!DOCTYPE svg PUBLIC "-//W3C//DTD SVG 1.1//EN" "http://www.w3.org/Graphics/SVG/1.1/DTD/svg11.dtd"><svg t="1677646778444" class="icon" viewBox="0 0 1024 1024" version="1.1" xmlns="http://www.w3.org/2000/svg" p-id="1923" xmlns:xlink="http://www.w3.org/1999/xlink" width="200" height="200"><path d="M533.410909 316.276364a100.072727 100.072727 0 1 0-99.84-100.072728 100.072727 100.072727 0 0 0 99.84 100.072728zM882.036364 628.363636l-209.454546-259.025454a46.545455 46.545455 0 0 0-15.36-12.567273 49.803636 49.803636 0 0 0-67.490909 20.48l-1.861818 3.723636-69.818182 135.447273L442.181818 468.48a48.872727 48.872727 0 0 0-35.374545-5.585455l-195.490909 41.425455a50.036364 50.036364 0 0 0 20.712727 97.745455l154.065454-32.581819 93.09091 67.258182h-123.345455a36.072727 36.072727 0 0 0-7.214545 0 49.105455 49.105455 0 0 0-34.21091 15.825455L155.927273 823.854545a50.036364 50.036364 0 0 0 73.076363 68.189091l144.756364-155.229091h182.225455a50.501818 50.501818 0 0 0 37.701818-16.756363v-1.396364a46.545455 46.545455 0 0 0 6.516363-10.24L696.785455 558.545455l107.52 132.654545A50.036364 50.036364 0 1 0 882.036364 628.363636z" fill="#FF6320" p-id="1924"></path></svg>